<?xml version="1.0" encoding="UTF-8" standalone="no"?>
<!-- Generated by IcoMoon.io -->

<svg
   xmlns:dc="http://purl.org/dc/elements/1.1/"
   xmlns:cc="http://creativecommons.org/ns#"
   xmlns:rdf="http://www.w3.org/1999/02/22-rdf-syntax-ns#"
   xmlns:svg="http://www.w3.org/2000/svg"
   xmlns="http://www.w3.org/2000/svg"
   xmlns:sodipodi="http://sodipodi.sourceforge.net/DTD/sodipodi-0.dtd"
   xmlns:inkscape="http://www.inkscape.org/namespaces/inkscape"
   version="1.1"
   width="20"
   height="20"
   viewBox="0 0 20 20"
   id="svg2"
   inkscape:version="0.91 r"
   sodipodi:docname="new.svg"
   inkscape:export-filename="/home/alancristhian/colorwheel/new.png"
   inkscape:export-xdpi="90"
   inkscape:export-ydpi="90">
  <metadata
     id="metadata12">
    <rdf:RDF>
      <cc:Work
         rdf:about="">
        <dc:format>image/svg+xml</dc:format>
        <dc:type
           rdf:resource="http://purl.org/dc/dcmitype/StillImage" />
      </cc:Work>
    </rdf:RDF>
  </metadata>
  <defs
     id="defs10" />
  <sodipodi:namedview
     pagecolor="#ffffff"
     bordercolor="#666666"
     borderopacity="1"
     objecttolerance="10"
     gridtolerance="10"
     guidetolerance="10"
     inkscape:pageopacity="0"
     inkscape:pageshadow="2"
     inkscape:window-width="1366"
     inkscape:window-height="744"
     id="namedview8"
     showgrid="false"
     inkscape:zoom="11.8"
     inkscape:cx="-0.084745763"
     inkscape:cy="10"
     inkscape:window-x="0"
     inkscape:window-y="24"
     inkscape:window-maximized="1"
     inkscape:current-layer="svg2" />
  <g
     id="g8072"
     transform="translate(0,-0.5)">
    <path
       id="path4"
       d="m 17.854,5.646 -4.5,-4.5 C 13.26,1.052 13.133,1 13,1 L 3.5,1 C 2.673,1 2,1.673 2,2.5 l 0,16 C 2,19.327 2.673,20 3.5,20 l 13,0 C 17.327,20 18,19.327 18,18.5 L 18,6 C 18,5.867 17.947,5.74 17.854,5.646 Z M 16.793,6 13.5,6 C 13.224,6 13,5.776 13,5.5 L 13,2.207 16.793,6 Z M 16.5,19 3.5,19 C 3.224,19 3,18.776 3,18.5 L 3,2.5 C 3,2.224 3.224,2 3.5,2 L 12,2 12,5.5 C 12,6.327 12.673,7 13.5,7 l 3.5,0 0,11.5 c 0,0.276 -0.224,0.5 -0.5,0.5 z"
       inkscape:connector-curvature="0"
       style="fill:#000000" />
    <path
       id="path6"
       d="M 11.5,13 9,13 9,10.5 C 9,10.224 8.776,10 8.5,10 8.224,10 8,10.224 8,10.5 L 8,13 5.5,13 C 5.224,13 5,13.224 5,13.5 5,13.776 5.224,14 5.5,14 L 8,14 8,16.5 C 8,16.776 8.224,17 8.5,17 8.776,17 9,16.776 9,16.5 L 9,14 11.5,14 C 11.776,14 12,13.776 12,13.5 12,13.224 11.776,13 11.5,13 Z"
       inkscape:connector-curvature="0"
       style="fill:#000000" />
  </g>
</svg>
