<?xml version="1.0" encoding="UTF-8" standalone="no"?>
<!-- Generated by IcoMoon.io -->

<svg
   xmlns:dc="http://purl.org/dc/elements/1.1/"
   xmlns:cc="http://creativecommons.org/ns#"
   xmlns:rdf="http://www.w3.org/1999/02/22-rdf-syntax-ns#"
   xmlns:svg="http://www.w3.org/2000/svg"
   xmlns="http://www.w3.org/2000/svg"
   xmlns:sodipodi="http://sodipodi.sourceforge.net/DTD/sodipodi-0.dtd"
   xmlns:inkscape="http://www.inkscape.org/namespaces/inkscape"
   version="1.1"
   width="20"
   height="20"
   viewBox="0 0 20 20"
   id="svg2"
   inkscape:version="0.91 r"
   sodipodi:docname="lnr-exit.svg"
   inkscape:export-filename="/home/alancristhian/colorwheel/open.png"
   inkscape:export-xdpi="90"
   inkscape:export-ydpi="90">
  <metadata
     id="metadata12">
    <rdf:RDF>
      <cc:Work
         rdf:about="">
        <dc:format>image/svg+xml</dc:format>
        <dc:type
           rdf:resource="http://purl.org/dc/dcmitype/StillImage" />
      </cc:Work>
    </rdf:RDF>
  </metadata>
  <defs
     id="defs10" />
  <sodipodi:namedview
     pagecolor="#ffffff"
     bordercolor="#666666"
     borderopacity="1"
     objecttolerance="10"
     gridtolerance="10"
     guidetolerance="10"
     inkscape:pageopacity="0"
     inkscape:pageshadow="2"
     inkscape:window-width="1366"
     inkscape:window-height="744"
     id="namedview8"
     showgrid="false"
     inkscape:zoom="11.8"
     inkscape:cx="2.6221235"
     inkscape:cy="10"
     inkscape:window-x="0"
     inkscape:window-y="24"
     inkscape:window-maximized="1"
     inkscape:current-layer="svg2" />
  <g
     id="g8072"
     transform="matrix(0,-1,1,0,0.321,18.50125)">
    <path
       id="path4"
       d="M 11.5,8 C 11.776,8 12,7.776 12,7.5 l 0,-4 C 12,2.673 11.327,2 10.5,2 l -9,0 C 0.673,2 0,2.673 0,3.5 l 0,12 c 0,0.746 0.537,1.56 1.222,1.853 l 5.162,2.212 c 0.178,0.076 0.359,0.114 0.532,0.114 0.213,0 0.416,-0.058 0.589,-0.172 C 7.819,19.3 8,18.932 8,18.499 l 0,-1.5 2.5,0 c 0.827,0 1.5,-0.673 1.5,-1.5 l 0,-4 c 0,-0.276 -0.224,-0.5 -0.5,-0.5 -0.276,0 -0.5,0.224 -0.5,0.5 l 0,4 c 0,0.276 -0.224,0.5 -0.5,0.5 l -2.5,0 0,-9.5 C 8,5.753 7.463,4.939 6.778,4.646 l -3.842,-1.647 7.564,0 c 0.276,0 0.5,0.224 0.5,0.5 l 0,4 c 0,0.276 0.224,0.5 0.5,0.5 z M 6.384,5.566 C 6.706,5.704 7,6.15 7,6.5 l 0,12 C 7,18.604 6.972,18.662 6.955,18.673 6.938,18.684 6.874,18.687 6.778,18.646 L 1.616,16.434 C 1.294,16.296 1,15.851 1,15.5 L 1,3.5 C 1,3.421 1.018,3.347 1.051,3.28 l 5.333,2.286 z"
       inkscape:connector-curvature="0"
       style="fill:#000000" />
    <path
       id="path6"
       d="m 18.354,9.146 -3,-3 c -0.195,-0.195 -0.512,-0.195 -0.707,0 -0.195,0.195 -0.195,0.512 0,0.707 l 2.146,2.146 -6.293,0 c -0.276,0 -0.5,0.224 -0.5,0.5 0,0.276 0.224,0.5 0.5,0.5 l 6.293,0 -2.146,2.146 c -0.195,0.195 -0.195,0.512 0,0.707 0.098,0.098 0.226,0.146 0.354,0.146 0.128,0 0.256,-0.049 0.354,-0.146 l 3,-3 c 0.195,-0.195 0.195,-0.512 0,-0.707 z"
       inkscape:connector-curvature="0"
       style="fill:#000000" />
  </g>
</svg>
