<?xml version="1.0" encoding="UTF-8" standalone="no"?>
<!-- Generated by IcoMoon.io -->

<svg
   xmlns:dc="http://purl.org/dc/elements/1.1/"
   xmlns:cc="http://creativecommons.org/ns#"
   xmlns:rdf="http://www.w3.org/1999/02/22-rdf-syntax-ns#"
   xmlns:svg="http://www.w3.org/2000/svg"
   xmlns="http://www.w3.org/2000/svg"
   xmlns:sodipodi="http://sodipodi.sourceforge.net/DTD/sodipodi-0.dtd"
   xmlns:inkscape="http://www.inkscape.org/namespaces/inkscape"
   version="1.1"
   width="20"
   height="20"
   viewBox="0 0 20 20"
   id="svg2"
   inkscape:version="0.91 r"
   sodipodi:docname="lnr-enter.svg"
   inkscape:export-filename="/home/alancristhian/colorwheel/save.png"
   inkscape:export-xdpi="90"
   inkscape:export-ydpi="90">
  <metadata
     id="metadata12">
    <rdf:RDF>
      <cc:Work
         rdf:about="">
        <dc:format>image/svg+xml</dc:format>
        <dc:type
           rdf:resource="http://purl.org/dc/dcmitype/StillImage" />
      </cc:Work>
    </rdf:RDF>
  </metadata>
  <defs
     id="defs10" />
  <sodipodi:namedview
     pagecolor="#ffffff"
     bordercolor="#666666"
     borderopacity="1"
     objecttolerance="10"
     gridtolerance="10"
     guidetolerance="10"
     inkscape:pageopacity="0"
     inkscape:pageshadow="2"
     inkscape:window-width="1366"
     inkscape:window-height="744"
     id="namedview8"
     showgrid="false"
     inkscape:zoom="11.8"
     inkscape:cx="-0.084745763"
     inkscape:cy="10"
     inkscape:window-x="0"
     inkscape:window-y="24"
     inkscape:window-maximized="1"
     inkscape:current-layer="svg2" />
  <g
     id="g8072"
     transform="matrix(-1,0,0,1,20.66,-1.34)"
     inkscape:export-xdpi="90"
     inkscape:export-ydpi="90">
    <path
       style="fill:#000000"
       inkscape:connector-curvature="0"
       id="path4"
       d="m 18.34,18.84 0,-9 c 0,-0.827 -0.673,-1.5 -1.5,-1.5 l -3,0 c -0.276,0 -0.5,0.224 -0.5,0.5 0,0.276 0.224,0.5 0.5,0.5 l 3,0 c 0.276,0 0.5,0.224 0.5,0.5 l 0,7.564 -1.647,-3.842 C 15.399,12.877 14.585,12.34 13.84,12.34 l -9.5,0 0,-2.5 c 0,-0.276 0.224,-0.5 0.5,-0.5 l 3,0 c 0.276,0 0.5,-0.224 0.5,-0.5 0,-0.276 -0.224,-0.5 -0.5,-0.5 l -3,0 c -0.827,0 -1.5,0.673 -1.5,1.5 l 0,2.5 -1.5,0 c -0.433,0 -0.801,0.18 -1.008,0.495 -0.114,0.174 -0.172,0.376 -0.172,0.589 0,0.173 0.038,0.354 0.114,0.532 l 2.212,5.162 C 3.28,19.803 4.094,20.34 4.84,20.34 l 12,0 c 0.827,0 1.5,-0.673 1.5,-1.5 z m -13.5,0.5 c -0.351,0 -0.796,-0.294 -0.934,-0.616 L 1.694,13.562 C 1.653,13.466 1.656,13.403 1.667,13.385 1.678,13.367 1.736,13.34 1.84,13.34 l 12,0 c 0.351,0 0.796,0.294 0.934,0.616 l 2.286,5.333 c -0.066,0.033 -0.141,0.051 -0.22,0.051 l -12,0 z" />
    <path
       style="fill:#000000"
       inkscape:connector-curvature="0"
       id="path6"
       d="m 11.194,9.694 3,-3 c 0.195,-0.195 0.195,-0.512 0,-0.707 -0.195,-0.195 -0.512,-0.195 -0.707,0 l -2.146,2.146 0,-6.293 c 0,-0.276 -0.224,-0.5 -0.5,-0.5 -0.276,0 -0.5,0.224 -0.5,0.5 l 0,6.293 L 8.195,5.987 C 8,5.792 7.683,5.792 7.488,5.987 7.39,6.085 7.342,6.213 7.342,6.341 c 0,0.128 0.049,0.256 0.146,0.354 l 3,3 c 0.195,0.195 0.512,0.195 0.707,0 z" />
  </g>
</svg>
